<svg width="183" height="35" viewBox="0 0 183 35" fill="none" xmlns="http://www.w3.org/2000/svg">
<path d="M15.7186 34.8369C20.7431 34.8369 25.2923 33.1076 27.6348 30.432H27.6687L28.0082 34.2496H35.0018V20.7738H13.41V25.0808H26.4465C26.141 27.528 22.7461 29.29 18.3327 29.29C12.6631 29.29 8.86078 26.6796 8.86078 22.7968C8.86078 18.7834 12.2557 16.0752 17.2123 16.0752C20.4375 16.0752 23.1874 17.3803 23.8664 19.2728L32.1161 17.9024C31.0976 13.367 25.0207 10.2998 17.2463 10.2998C6.92567 10.2998 0 15.4226 0 23.0578C0 30.0731 6.31458 34.8369 15.7186 34.8369Z" fill="black"/>
<path d="M52.0998 34.7717C56.7848 34.7717 61.2661 33.7602 63.6426 32.2918L61.4359 28.6374C59.6365 29.6163 56.1398 30.3341 52.6769 30.3341C49.3838 30.3341 46.3284 29.551 45.4118 27.5933H63.7444C63.9142 27.0386 63.9821 26.3207 63.9821 25.8313C63.9821 20.4149 58.7199 16.8583 50.7418 16.8583C42.6279 16.8583 36.9584 20.5454 36.9584 25.7987C36.9584 31.2803 43.0693 34.7717 52.0998 34.7717ZM45.276 24.2977C45.5815 22.4052 47.7882 21.0674 50.6739 21.0674C53.4917 21.0674 55.8003 22.3726 55.9021 24.2977H45.276Z" fill="black"/>
<path d="M83.5236 16.8583C79.1442 16.8583 75.8171 18.6855 74.1876 21.4916H74.1536L73.3049 17.413H66.3792V34.2496H74.3913V26.3534C74.3913 23.1557 76.4622 21.2632 79.8571 21.2632C82.8446 21.2632 84.5761 22.862 84.5761 25.5376V34.2496H92.5542L92.5881 24.7219C92.6221 19.8602 89.0913 16.8583 83.5236 16.8583Z" fill="black"/>
<path d="M99.1326 15.6184C101.713 15.6184 103.58 14.0522 103.58 11.8334C103.58 9.61462 101.713 8.08105 99.1326 8.08105C96.5525 8.08105 94.6853 9.61462 94.6853 11.8334C94.6853 14.0522 96.5525 15.6184 99.1326 15.6184ZM95.1266 34.2496H103.139V17.413H95.1266V34.2496Z" fill="black"/>
<path d="M120.562 34.7717C125.247 34.7717 129.728 33.7602 132.105 32.2918L129.898 28.6374C128.099 29.6163 124.602 30.3341 121.139 30.3341C117.846 30.3341 114.791 29.551 113.874 27.5933H132.207C132.376 27.0386 132.444 26.3207 132.444 25.8313C132.444 20.4149 127.182 16.8583 119.204 16.8583C111.09 16.8583 105.421 20.5454 105.421 25.7987C105.421 31.2803 111.532 34.7717 120.562 34.7717ZM113.738 24.2977C114.044 22.4052 116.251 21.0674 119.136 21.0674C121.954 21.0674 124.263 22.3726 124.364 24.2977H113.738Z" fill="black"/>
<path d="M147.335 34.7717C154.193 34.7717 159.319 32.9118 159.319 28.7026C159.319 25.3418 156.094 23.9062 149.677 23.4494L145.332 23.0904C143.227 22.9273 142.175 22.6663 142.175 22.0137C142.175 21.1653 144.347 20.7411 147.165 20.7411C150.322 20.7411 153.649 21.5569 155.822 22.6336L157.723 19.0771C154.634 17.6088 150.967 16.8583 147.267 16.8583C140.375 16.8583 135.385 18.7508 135.385 22.9599C135.385 26.0271 138.406 27.3975 144.313 27.789L148.659 28.1153C151.069 28.2785 152.325 28.6374 152.325 29.3226C152.325 30.1057 150.628 30.6278 146.826 30.6278C142.854 30.6278 138.44 29.5836 136.064 28.1806L133.959 32.0961C136.912 33.6949 142.31 34.7717 147.335 34.7717Z" fill="black"/>
<path d="M164.792 0.783936C164.792 7.71614 169.413 12.3376 176.346 12.3376C169.413 12.3376 164.792 16.9591 164.792 23.8913C164.792 16.9591 160.17 12.3376 153.238 12.3376C160.17 12.3376 164.792 7.71614 164.792 0.783936Z" fill="black"/>
</svg>
