<svg width="184" height="34" viewBox="0 0 184 34" fill="none" xmlns="http://www.w3.org/2000/svg">
<path d="M41.2343 6.71522H34.8943L26.6085 32.7882H19.6328L27.8107 6.71522H21.2389L23.1356 0.592041H43.2026L41.2343 6.71522Z" fill="black"/>
<path d="M46.0667 0.592041H66.4126L55.6338 32.7882H35.6641L46.0667 0.592041ZM44.6135 26.6868H50.7183L57.3253 6.71314H51.1457L44.6135 26.6868Z" fill="black"/>
<path d="M65.6056 32.7882H58.6758L67.9874 5.13397L74.6201 0.592041H89.0706L80.7089 24.6166H68.3903L65.6056 32.7882ZM75.864 18.4487L79.9021 6.71522H74.4919L70.4911 18.4487H75.864Z" fill="black"/>
<path d="M102.209 32.1961H84.0273L87.5537 22.176H94.5251L93.1285 26.0948H97.4434L99.2868 20.9734L91.0586 12.8914L95.6001 0H113.686L110.212 9.57073H103.838L105.07 6.13775H100.475L98.979 10.3458L107.22 18.406L102.209 32.1961Z" fill="black"/>
<path d="M119.138 13.2222H125.152L130.075 0H137.136L125.017 32.1961H118.087L122.879 19.3266H116.887L112.141 32.1961H105.211L116.954 0H124.015L119.138 13.2222Z" fill="black"/>
<path d="M140.14 0H160.486L147.931 32.1961H127.965L140.14 0ZM137.255 26.0948H143.361L151.068 6.12111H144.89L137.255 26.0948Z" fill="black"/>
<path d="M181.187 6.12319H174.843L164.421 32.1961H157.445L167.759 6.12319H161.187L163.591 0H183.657L181.187 6.12319Z" fill="black"/>
<path d="M11.3752 0.497803H3.48652C2.56219 0.498919 1.67605 0.855852 1.02245 1.49032C0.368848 2.12478 0.00114967 2.98498 0 3.88225L0 29.8086C0.000286044 30.7066 0.367534 31.5679 1.02117 32.2034C1.6748 32.8388 2.56143 33.1967 3.48652 33.1983H11.3687C12.2947 33.1972 13.1826 32.8398 13.8377 32.2045C14.4929 31.5691 14.8619 30.7076 14.8639 29.8086V3.88225C14.8622 2.98479 14.494 2.12459 13.84 1.49019C13.1861 0.855783 12.2997 0.498917 11.3752 0.497803" fill="white"/>
<path d="M9.53491 6.4013L9.54387 6.50943C9.7913 6.64892 9.9167 6.76246 10.1675 6.91816C10.8303 7.32041 11.6476 8.03732 11.5435 10.5059C11.7294 11.0466 11.8122 12.103 11.9835 12.4426C12.3295 13.1032 12.5601 13.5336 12.6553 14.1586C12.6553 14.1586 12.755 15.1318 12.8848 15.1999C13.5701 15.3491 13.3719 15.4162 13.4726 15.5243C13.579 15.6573 13.9742 15.6508 13.9742 16.0066C14.1056 16.1766 14.2122 16.3632 14.2911 16.5613V3.72398C14.2905 3.02199 14.002 2.34881 13.4888 1.85172C12.9756 1.35463 12.2793 1.07411 11.5525 1.07153H8.92471C9.34345 1.21643 9.58529 1.38728 9.72413 1.65868C10.06 1.6868 10.4664 2.42101 9.83609 3.50556C10.1149 3.68505 9.89767 3.95214 9.69726 4.26247C9.63904 4.36195 9.57522 4.53929 9.38936 4.52739C9.15088 5.01182 8.86313 5.48111 8.6448 5.51138C8.57875 5.58924 8.53284 5.79793 8.63025 5.89633C8.95046 6.03474 9.34009 6.22072 9.53267 6.4013" fill="#C8102E"/>
<path d="M14.2885 18.0418C14.1371 18.4181 13.8902 18.7496 13.5717 19.0044C13.2532 19.2592 12.8737 19.4287 12.4697 19.4967C12.0658 19.5646 11.6509 19.5287 11.265 19.3924C10.8792 19.256 10.5353 19.0239 10.2664 18.7182C9.99761 18.4126 9.81286 18.0437 9.72998 17.6471C9.6471 17.2505 9.66886 16.8395 9.79317 16.4536C9.91749 16.0677 10.1402 15.7199 10.4398 15.4437C10.7395 15.1674 11.106 14.972 11.5042 14.8762C11.2293 14.1961 10.648 13.0935 10.4757 12.7314C10.3034 12.3692 9.9195 10.1306 9.83444 9.6865C9.81481 9.5895 8.80491 10.2664 8.80273 10.3073C8.74383 10.3645 8.0393 12.1677 8.01531 12.2657C8.00457 12.366 7.99947 12.4667 8.00004 12.5675C8.00004 12.5675 8.34358 12.6096 8.54534 13.2024C8.74711 13.7952 9.33821 15.9541 9.33821 15.9541C9.28646 16.0105 9.2299 16.0624 9.16917 16.1093C9.92387 18.6033 9.65994 19.6769 9.99803 20.4076C10.4234 21.4391 10.5433 21.3033 10.9032 22.1699C11.1639 22.8004 11.4562 25.2837 11.5576 25.3936C11.9655 25.9034 12.1836 26.3022 12.1836 26.59C12.1836 26.8778 11.839 27.7347 11.9655 28.2326C12.0407 28.5258 12.0811 29.1822 12.2196 29.3104C12.2196 29.3104 12.3461 29.5573 12.2839 29.6661C12.2654 29.7039 12.2294 29.7621 12.2458 29.8062C12.4704 30.5898 13.1946 31.9252 12.0211 32.6248H12.0462C12.6754 32.5259 13.2477 32.2072 13.6592 31.7265C14.0707 31.2459 14.294 30.6352 14.2885 30.0056V18.0418Z" fill="#C8102E"/>
<path d="M11.0864 29.4949C10.6459 29.1184 10.9399 28.9601 10.9231 28.8104C10.6325 27.6616 9.67774 26.9663 10.1719 26.5877C10.05 26.208 9.80183 25.732 9.81078 25.732C8.32501 24.9158 7.05837 23.5927 6.84372 23.3937C6.58324 23.1231 6.13941 22.8504 6.06115 22.6311C5.7034 22.3166 3.95157 19.9388 3.54351 19.0628L2.83249 18.9665C2.5094 17.7022 1.42946 16.6433 1.40263 15.3747C1.39256 14.8955 1.62622 13.8686 1.71789 13.6633C1.80956 13.4579 2.21762 13.1146 2.21762 13.1146V12.7765C0.66701 12.8183 1.11307 12.6696 0.844765 12.0898C0.658066 11.6909 0.792221 11.6032 0.859299 11.3261C1.06836 10.5079 1.75925 9.24675 2.04545 8.67343C2.13265 8.38356 2.43226 7.68616 2.43226 7.68616C3.58823 5.43351 4.01976 5.5993 5.39261 5.47201L5.46081 5.37895C6.83701 5.32226 6.61118 5.22279 6.80236 3.95527C6.60112 4.03763 6.54187 3.55737 6.54187 3.55737C6.43008 2.83643 6.75093 2.97227 6.90185 2.95837C6.93427 1.77214 7.0606 1.39884 7.95497 1.07153H3.3188C2.95834 1.07139 2.60138 1.13922 2.26832 1.27114C1.93527 1.40305 1.63265 1.59647 1.37776 1.84034C1.12287 2.08421 0.920716 2.37375 0.782839 2.69241C0.644963 3.01107 0.574073 3.3526 0.57422 3.69749V29.9977C0.573926 30.3426 0.644708 30.6843 0.782518 31.0031C0.920328 31.3219 1.12246 31.6115 1.37737 31.8555C1.63227 32.0995 1.93494 32.293 2.26806 32.425C2.60119 32.557 2.95824 32.6248 3.3188 32.6247H11.4363C10.5061 32.1455 11.0551 31.231 11.0864 29.4949Z" fill="#1D428A"/>
<path d="M4.88051 30.9038V26.3183H5.86039C6.42744 26.3183 6.77675 26.5944 6.77675 27.2371V27.9168C6.77675 28.334 6.63725 28.5462 6.43652 28.6492C6.63272 28.7717 6.77675 28.9767 6.77675 29.3238V29.9922C6.77675 30.6205 6.40589 30.9038 5.86039 30.9038H4.88051ZM5.55304 28.9128V30.326H5.81162C6.03844 30.326 6.10535 30.2157 6.10535 29.9974V29.2208C6.10535 28.9963 6.02823 28.9118 5.80481 28.9118L5.55304 28.9128ZM5.55304 26.8961V28.4112H5.80481C6.04184 28.4112 6.10535 28.334 6.10535 28.0837V27.2041C6.10535 26.9919 6.03504 26.8951 5.81162 26.8951L5.55304 26.8961ZM8.35884 29.9727H7.74982L7.66476 30.8996H6.98429L7.59331 26.3142H8.56071L9.14931 30.8996H8.44276L8.35884 29.9727ZM8.05716 26.8323H8.02201C7.98004 27.3843 7.89612 28.3536 7.86777 28.6625L7.79178 29.4494H8.31688L8.23976 28.6605C8.2114 28.3453 8.11387 27.3885 8.05716 26.8302V26.8323ZM2.87994 30.9038H2.28906V26.3183H3.22017L3.96868 30.0746C3.90631 29.1765 3.82125 28.0909 3.82125 27.166V26.3183H4.40985V30.9038H3.55814L2.80962 27.2299C2.85839 28.0775 2.87994 28.7522 2.87994 29.4587V30.9038Z" fill="white"/>
</svg>
